# xmcd
#
# Track frame offsets: 
#        150
#        33426
#        44422
#        55360
#        73124
#        111475
#        122450
#        134862
#        159928
#        185536
#        196030
#        206871
#
# Disc length: 2873 seconds
#
# Revision: 0
# Processed by: cddbd v1.5.1PL0 Copyright (c) Steve Scherf et al.
# Submitted via: ExactAudioCopy v0.95a5
#
DISCID=b70b370c
DTITLE=Eric_Clapton - Los_que_triunfaron-2
DYEAR=2003
DGENRE=Blues
TTITLE0=Bright lights big city
TTITLE1=For your love
TTITLE2=Boom Boom
TTITLE3=Smile
TTITLE4=Badge
TTITLE5=Snake driver
TTITLE6=Freight loader
TTITLE7=Let it grow
TTITLE8=She's so respectable
TTITLE9=Got to hurry
TTITLE10=Miles road
TTITLE11=Talking about you
EXTD=
EXTT0=
EXTT1=
EXTT2=
EXTT3=
EXTT4=
EXTT5=
EXTT6=
EXTT7=
EXTT8=
EXTT9=
EXTT10=
EXTT11=
PLAYORDER=
